<svg xmlns="http://www.w3.org/2000/svg" viewBox="0 0 1200 700"><defs><linearGradient id="w" x1="0" y1="0" x2="1" y2="1"><stop stop-color="#8f6e54"/><stop offset="1" stop-color="#4e3b2f"/></linearGradient><filter id="noise"><feTurbulence baseFrequency=".7" numOctaves="2" seed="19"/><feBlend mode="multiply" in2="SourceGraphic"/></filter></defs><rect width="1200" height="700" fill="#5b493d"/><rect x="90" y="70" width="1020" height="560" rx="25" fill="url(#w)"/><rect x="150" y="135" width="900" height="400" rx="18" fill="#2f2925" opacity=".78"/><g transform="translate(440 210) rotate(-9 160 120)"><rect width="320" height="240" rx="28" fill="#d4c9b4"/><g fill="#a86468"><circle cx="75" cy="80" r="32"/><circle cx="130" cy="60" r="32"/><circle cx="188" cy="64" r="32"/><circle cx="245" cy="88" r="32"/></g><g fill="#565b60"><circle cx="88" cy="140" r="26"/><circle cx="140" cy="158" r="26"/><circle cx="196" cy="158" r="26"/><circle cx="246" cy="138" r="26"/></g><path d="M45 190c65 28 165 30 235 4" stroke="#7d6759" stroke-width="17" fill="none" opacity=".75"/><path d="M5 15l55 22" stroke="#9a625f" stroke-width="12"/></g><rect x="265" y="505" width="670" height="44" rx="8" fill="#cbbca9" opacity=".75"/><text x="310" y="536" font-family="sans-serif" font-size="25" fill="#4b433d">柜台抽屉 · 长期寄存 / 失败品</text></svg>
