<svg xmlns="http://www.w3.org/2000/svg" viewBox="0 0 1200 700"><defs><linearGradient id="a" x1="0" y1="0" x2="0" y2="1"><stop stop-color="#7d6d61"/><stop offset="1" stop-color="#3e3936"/></linearGradient><filter id="g"><feTurbulence type="fractalNoise" baseFrequency=".65" numOctaves="3" seed="13" result="n"/><feBlend in="SourceGraphic" in2="n" mode="overlay"/></filter></defs><rect width="1200" height="700" fill="url(#a)"/><g filter="url(#g)"><ellipse cx="600" cy="570" rx="480" ry="70" fill="#2e2a28" opacity=".45"/><rect x="150" y="100" width="900" height="470" rx="26" fill="#8b715e"/><g transform="translate(280 170)"><path d="M0 0h190l-25 300H25Z" fill="#d9b5a0" opacity=".82"/><rect x="12" y="34" width="166" height="130" rx="60" fill="#8f6672" opacity=".75"/><path d="M118-30l45-90" stroke="#eee5da" stroke-width="14"/><circle cx="95" cy="100" r="24" fill="#f4e8df" opacity=".4"/></g><g transform="translate(690 170)"><path d="M0 0h190l-25 300H25Z" fill="#d9ccb0" opacity=".82"/><rect x="12" y="44" width="166" height="130" rx="60" fill="#9b8358" opacity=".75"/><path d="M88-30l-12-100" stroke="#eee5da" stroke-width="14"/></g><g fill="#6d8396"><circle cx="550" cy="465" r="22"/><circle cx="600" cy="470" r="22"/><circle cx="650" cy="463" r="22"/></g><rect x="780" y="450" width="150" height="38" rx="8" fill="#c7beb2"/><text x="796" y="476" font-family="sans-serif" font-size="23" fill="#4e4842">03号桌</text></g></svg>
