<svg xmlns="http://www.w3.org/2000/svg" viewBox="0 0 1200 700"><defs><linearGradient id="b" x1="0" y1="0" x2="1" y2="1"><stop stop-color="#c8b59f"/><stop offset="1" stop-color="#756354"/></linearGradient><filter id="n"><feTurbulence baseFrequency=".55" numOctaves="3" seed="14"/><feColorMatrix values="1 0 0 0 0 0 1 0 0 0 0 0 1 0 0 0 0 0 .08 0"/><feBlend in="SourceGraphic" mode="multiply"/></filter></defs><rect width="1200" height="700" fill="url(#b)"/><g filter="url(#n)"><path d="M100 125L1080 90 1130 590 140 625Z" fill="#aa8466"/><g transform="translate(190 170) rotate(-3)"><rect width="250" height="155" rx="18" fill="#eee9df"/><g fill="#6d8396"><circle cx="55" cy="55" r="18"/><circle cx="95" cy="55" r="18"/><circle cx="135" cy="55" r="18"/><circle cx="175" cy="55" r="18"/></g><text x="125" y="120" text-anchor="middle" font-family="sans-serif" font-size="28" fill="#4e5653">挂件 · 18</text></g><g transform="translate(475 145) rotate(2)"><rect width="240" height="165" rx="18" fill="#f0eadc"/><g fill="#84957f"><circle cx="55" cy="58" r="18"/><circle cx="95" cy="58" r="18"/><circle cx="135" cy="58" r="18"/></g><text x="120" y="125" text-anchor="middle" font-family="sans-serif" font-size="28" fill="#566159">杯垫 · 25</text></g><g transform="translate(765 160) rotate(-1)"><rect width="230" height="150" rx="18" fill="#ede5dd"/><g fill="#ad899a"><circle cx="55" cy="55" r="18"/><circle cx="95" cy="55" r="18"/><circle cx="135" cy="55" r="18"/></g><text x="115" y="115" text-anchor="middle" font-family="sans-serif" font-size="25" fill="#65575f">随便看看</text></g><rect x="260" y="390" width="560" height="140" rx="24" fill="#d6cbbb" opacity=".92"/><text x="300" y="435" font-family="sans-serif" font-size="21" fill="#625c55">摆摊计划 · 第 0 版</text><text x="300" y="478" font-family="sans-serif" font-size="17" fill="#756f68">收纳箱已经买了 / 桌布还没买 / 不接复杂定制</text><text x="300" y="512" font-family="sans-serif" font-size="17" fill="#756f68">唐梨：先把价签做完再说</text><g fill="#d7b968"><circle cx="900" cy="440" r="25"/><circle cx="955" cy="430" r="25"/></g><g fill="#565b60"><circle cx="905" cy="500" r="25"/><circle cx="965" cy="510" r="25"/></g></g></svg>
