<svg xmlns="http://www.w3.org/2000/svg" width="572" height="572" viewBox="0 0 572 572"><defs><filter id="sh" x="-30%" y="-30%" width="160%" height="160%"><feDropShadow dx="0" dy="2" stdDeviation="2" flood-opacity=".22"/></filter><radialGradient id="hi"><stop offset="0" stop-color="#fff" stop-opacity=".65"/><stop offset=".55" stop-color="#fff" stop-opacity="0"/></radialGradient></defs><rect width="100%" height="100%" rx="28" fill="#f4f0e7"/><rect x="26" y="26" width="520" height="520" rx="18" fill="#ddd5c8" stroke="#c8bdad"/><circle cx="244.0" cy="76.0" r="10.92" fill="#565b60" filter="url(#sh)"/><circle cx="240.0" cy="71.0" r="3.36" fill="url(#hi)"/><circle cx="244.0" cy="76.0" r="2.8000000000000003" fill="#3d3b37" opacity=".24"/><circle cx="272.0" cy="76.0" r="10.92" fill="#565b60" filter="url(#sh)"/><circle cx="268.0" cy="71.0" r="3.36" fill="url(#hi)"/><circle cx="272.0" cy="76.0" r="2.8000000000000003" fill="#3d3b37" opacity=".24"/><circle cx="216.0" cy="104.0" r="10.92" fill="#565b60" filter="url(#sh)"/><circle cx="212.0" cy="99.0" r="3.36" fill="url(#hi)"/><circle cx="216.0" cy="104.0" r="2.8000000000000003" fill="#3d3b37" opacity=".24"/><circle cx="244.0" cy="104.0" r="10.92" fill="#565b60" filter="url(#sh)"/><circle cx="240.0" cy="99.0" r="3.36" fill="url(#hi)"/><circle cx="244.0" cy="104.0" r="2.8000000000000003" fill="#3d3b37" opacity=".24"/><circle cx="272.0" cy="104.0" r="10.92" fill="#565b60" filter="url(#sh)"/><circle cx="268.0" cy="99.0" r="3.36" fill="url(#hi)"/><circle cx="272.0" cy="104.0" r="2.8000000000000003" fill="#3d3b37" opacity=".24"/><circle cx="300.0" cy="104.0" r="10.92" fill="#565b60" filter="url(#sh)"/><circle cx="296.0" cy="99.0" r="3.36" fill="url(#hi)"/><circle cx="300.0" cy="104.0" r="2.8000000000000003" fill="#3d3b37" opacity=".24"/><circle cx="188.0" cy="132.0" r="10.92" fill="#565b60" filter="url(#sh)"/><circle cx="184.0" cy="127.0" r="3.36" fill="url(#hi)"/><circle cx="188.0" cy="132.0" r="2.8000000000000003" fill="#3d3b37" opacity=".24"/><circle cx="216.0" cy="132.0" r="10.92" fill="#565b60" filter="url(#sh)"/><circle cx="212.0" cy="127.0" r="3.36" fill="url(#hi)"/><circle cx="216.0" cy="132.0" r="2.8000000000000003" fill="#3d3b37" opacity=".24"/><circle cx="244.0" cy="132.0" r="10.92" fill="#e8e4d8" filter="url(#sh)"/><circle cx="240.0" cy="127.0" r="3.36" fill="url(#hi)"/><circle cx="244.0" cy="132.0" r="2.8000000000000003" fill="#3d3b37" opacity=".24"/><circle cx="272.0" cy="132.0" r="10.92" fill="#e8e4d8" filter="url(#sh)"/><circle cx="268.0" cy="127.0" r="3.36" fill="url(#hi)"/><circle cx="272.0" cy="132.0" r="2.8000000000000003" fill="#3d3b37" opacity=".24"/><circle cx="300.0" cy="132.0" r="10.92" fill="#565b60" filter="url(#sh)"/><circle cx="296.0" cy="127.0" r="3.36" fill="url(#hi)"/><circle cx="300.0" cy="132.0" r="2.8000000000000003" fill="#3d3b37" opacity=".24"/><circle cx="328.0" cy="132.0" r="10.92" fill="#565b60" filter="url(#sh)"/><circle cx="324.0" cy="127.0" r="3.36" fill="url(#hi)"/><circle cx="328.0" cy="132.0" r="2.8000000000000003" fill="#3d3b37" opacity=".24"/><circle cx="188.0" cy="160.0" r="10.92" fill="#565b60" filter="url(#sh)"/><circle cx="184.0" cy="155.0" r="3.36" fill="url(#hi)"/><circle cx="188.0" cy="160.0" r="2.8000000000000003" fill="#3d3b37" opacity=".24"/><circle cx="216.0" cy="160.0" r="10.92" fill="#565b60" filter="url(#sh)"/><circle cx="212.0" cy="155.0" r="3.36" fill="url(#hi)"/><circle cx="216.0" cy="160.0" r="2.8000000000000003" fill="#3d3b37" opacity=".24"/><circle cx="244.0" cy="160.0" r="10.92" fill="#e8e4d8" filter="url(#sh)"/><circle cx="240.0" cy="155.0" r="3.36" fill="url(#hi)"/><circle cx="244.0" cy="160.0" r="2.8000000000000003" fill="#3d3b37" opacity=".24"/><circle cx="272.0" cy="160.0" r="10.92" fill="#e8e4d8" filter="url(#sh)"/><circle cx="268.0" cy="155.0" r="3.36" fill="url(#hi)"/><circle cx="272.0" cy="160.0" r="2.8000000000000003" fill="#3d3b37" opacity=".24"/><circle cx="300.0" cy="160.0" r="10.92" fill="#565b60" filter="url(#sh)"/><circle cx="296.0" cy="155.0" r="3.36" fill="url(#hi)"/><circle cx="300.0" cy="160.0" r="2.8000000000000003" fill="#3d3b37" opacity=".24"/><circle cx="328.0" cy="160.0" r="10.92" fill="#565b60" filter="url(#sh)"/><circle cx="324.0" cy="155.0" r="3.36" fill="url(#hi)"/><circle cx="328.0" cy="160.0" r="2.8000000000000003" fill="#3d3b37" opacity=".24"/><circle cx="188.0" cy="188.0" r="10.92" fill="#565b60" filter="url(#sh)"/><circle cx="184.0" cy="183.0" r="3.36" fill="url(#hi)"/><circle cx="188.0" cy="188.0" r="2.8000000000000003" fill="#3d3b37" opacity=".24"/><circle cx="216.0" cy="188.0" r="10.92" fill="#565b60" filter="url(#sh)"/><circle cx="212.0" cy="183.0" r="3.36" fill="url(#hi)"/><circle cx="216.0" cy="188.0" r="2.8000000000000003" fill="#3d3b37" opacity=".24"/><circle cx="244.0" cy="188.0" r="10.92" fill="#6d8396" filter="url(#sh)"/><circle cx="240.0" cy="183.0" r="3.36" fill="url(#hi)"/><circle cx="244.0" cy="188.0" r="2.8000000000000003" fill="#3d3b37" opacity=".24"/><circle cx="272.0" cy="188.0" r="10.92" fill="#6d8396" filter="url(#sh)"/><circle cx="268.0" cy="183.0" r="3.36" fill="url(#hi)"/><circle cx="272.0" cy="188.0" r="2.8000000000000003" fill="#3d3b37" opacity=".24"/><circle cx="300.0" cy="188.0" r="10.92" fill="#565b60" filter="url(#sh)"/><circle cx="296.0" cy="183.0" r="3.36" fill="url(#hi)"/><circle cx="300.0" cy="188.0" r="2.8000000000000003" fill="#3d3b37" opacity=".24"/><circle cx="328.0" cy="188.0" r="10.92" fill="#565b60" filter="url(#sh)"/><circle cx="324.0" cy="183.0" r="3.36" fill="url(#hi)"/><circle cx="328.0" cy="188.0" r="2.8000000000000003" fill="#3d3b37" opacity=".24"/><circle cx="188.0" cy="216.0" r="10.92" fill="#565b60" filter="url(#sh)"/><circle cx="184.0" cy="211.0" r="3.36" fill="url(#hi)"/><circle cx="188.0" cy="216.0" r="2.8000000000000003" fill="#3d3b37" opacity=".24"/><circle cx="216.0" cy="216.0" r="10.92" fill="#565b60" filter="url(#sh)"/><circle cx="212.0" cy="211.0" r="3.36" fill="url(#hi)"/><circle cx="216.0" cy="216.0" r="2.8000000000000003" fill="#3d3b37" opacity=".24"/><circle cx="244.0" cy="216.0" r="10.92" fill="#6d8396" filter="url(#sh)"/><circle cx="240.0" cy="211.0" r="3.36" fill="url(#hi)"/><circle cx="244.0" cy="216.0" r="2.8000000000000003" fill="#3d3b37" opacity=".24"/><circle cx="272.0" cy="216.0" r="10.92" fill="#6d8396" filter="url(#sh)"/><circle cx="268.0" cy="211.0" r="3.36" fill="url(#hi)"/><circle cx="272.0" cy="216.0" r="2.8000000000000003" fill="#3d3b37" opacity=".24"/><circle cx="300.0" cy="216.0" r="10.92" fill="#565b60" filter="url(#sh)"/><circle cx="296.0" cy="211.0" r="3.36" fill="url(#hi)"/><circle cx="300.0" cy="216.0" r="2.8000000000000003" fill="#3d3b37" opacity=".24"/><circle cx="328.0" cy="216.0" r="10.92" fill="#565b60" filter="url(#sh)"/><circle cx="324.0" cy="211.0" r="3.36" fill="url(#hi)"/><circle cx="328.0" cy="216.0" r="2.8000000000000003" fill="#3d3b37" opacity=".24"/><circle cx="216.0" cy="244.0" r="10.92" fill="#565b60" filter="url(#sh)"/><circle cx="212.0" cy="239.0" r="3.36" fill="url(#hi)"/><circle cx="216.0" cy="244.0" r="2.8000000000000003" fill="#3d3b37" opacity=".24"/><circle cx="244.0" cy="244.0" r="10.92" fill="#565b60" filter="url(#sh)"/><circle cx="240.0" cy="239.0" r="3.36" fill="url(#hi)"/><circle cx="244.0" cy="244.0" r="2.8000000000000003" fill="#3d3b37" opacity=".24"/><circle cx="272.0" cy="244.0" r="10.92" fill="#565b60" filter="url(#sh)"/><circle cx="268.0" cy="239.0" r="3.36" fill="url(#hi)"/><circle cx="272.0" cy="244.0" r="2.8000000000000003" fill="#3d3b37" opacity=".24"/><circle cx="300.0" cy="244.0" r="10.92" fill="#565b60" filter="url(#sh)"/><circle cx="296.0" cy="239.0" r="3.36" fill="url(#hi)"/><circle cx="300.0" cy="244.0" r="2.8000000000000003" fill="#3d3b37" opacity=".24"/><circle cx="244.0" cy="272.0" r="10.92" fill="#565b60" filter="url(#sh)"/><circle cx="240.0" cy="267.0" r="3.36" fill="url(#hi)"/><circle cx="244.0" cy="272.0" r="2.8000000000000003" fill="#3d3b37" opacity=".24"/><circle cx="272.0" cy="272.0" r="10.92" fill="#565b60" filter="url(#sh)"/><circle cx="268.0" cy="267.0" r="3.36" fill="url(#hi)"/><circle cx="272.0" cy="272.0" r="2.8000000000000003" fill="#3d3b37" opacity=".24"/><circle cx="244.0" cy="300.0" r="10.92" fill="#565b60" filter="url(#sh)"/><circle cx="240.0" cy="295.0" r="3.36" fill="url(#hi)"/><circle cx="244.0" cy="300.0" r="2.8000000000000003" fill="#3d3b37" opacity=".24"/><circle cx="272.0" cy="300.0" r="10.92" fill="#565b60" filter="url(#sh)"/><circle cx="268.0" cy="295.0" r="3.36" fill="url(#hi)"/><circle cx="272.0" cy="300.0" r="2.8000000000000003" fill="#3d3b37" opacity=".24"/><circle cx="132.0" cy="328.0" r="10.92" fill="#d7b968" filter="url(#sh)"/><circle cx="128.0" cy="323.0" r="3.36" fill="url(#hi)"/><circle cx="132.0" cy="328.0" r="2.8000000000000003" fill="#3d3b37" opacity=".24"/><circle cx="160.0" cy="328.0" r="10.92" fill="#d7b968" filter="url(#sh)"/><circle cx="156.0" cy="323.0" r="3.36" fill="url(#hi)"/><circle cx="160.0" cy="328.0" r="2.8000000000000003" fill="#3d3b37" opacity=".24"/><circle cx="188.0" cy="328.0" r="10.92" fill="#d7b968" filter="url(#sh)"/><circle cx="184.0" cy="323.0" r="3.36" fill="url(#hi)"/><circle cx="188.0" cy="328.0" r="2.8000000000000003" fill="#3d3b37" opacity=".24"/><circle cx="216.0" cy="328.0" r="10.92" fill="#d7b968" filter="url(#sh)"/><circle cx="212.0" cy="323.0" r="3.36" fill="url(#hi)"/><circle cx="216.0" cy="328.0" r="2.8000000000000003" fill="#3d3b37" opacity=".24"/><circle cx="244.0" cy="328.0" r="10.92" fill="#565b60" filter="url(#sh)"/><circle cx="240.0" cy="323.0" r="3.36" fill="url(#hi)"/><circle cx="244.0" cy="328.0" r="2.8000000000000003" fill="#3d3b37" opacity=".24"/><circle cx="272.0" cy="328.0" r="10.92" fill="#565b60" filter="url(#sh)"/><circle cx="268.0" cy="323.0" r="3.36" fill="url(#hi)"/><circle cx="272.0" cy="328.0" r="2.8000000000000003" fill="#3d3b37" opacity=".24"/><circle cx="300.0" cy="328.0" r="10.92" fill="#d7b968" filter="url(#sh)"/><circle cx="296.0" cy="323.0" r="3.36" fill="url(#hi)"/><circle cx="300.0" cy="328.0" r="2.8000000000000003" fill="#3d3b37" opacity=".24"/><circle cx="328.0" cy="328.0" r="10.92" fill="#d7b968" filter="url(#sh)"/><circle cx="324.0" cy="323.0" r="3.36" fill="url(#hi)"/><circle cx="328.0" cy="328.0" r="2.8000000000000003" fill="#3d3b37" opacity=".24"/><circle cx="356.0" cy="328.0" r="10.92" fill="#d7b968" filter="url(#sh)"/><circle cx="352.0" cy="323.0" r="3.36" fill="url(#hi)"/><circle cx="356.0" cy="328.0" r="2.8000000000000003" fill="#3d3b37" opacity=".24"/><circle cx="384.0" cy="328.0" r="10.92" fill="#d7b968" filter="url(#sh)"/><circle cx="380.0" cy="323.0" r="3.36" fill="url(#hi)"/><circle cx="384.0" cy="328.0" r="2.8000000000000003" fill="#3d3b37" opacity=".24"/><circle cx="132.0" cy="356.0" r="10.92" fill="#d7b968" filter="url(#sh)"/><circle cx="128.0" cy="351.0" r="3.36" fill="url(#hi)"/><circle cx="132.0" cy="356.0" r="2.8000000000000003" fill="#3d3b37" opacity=".24"/><circle cx="244.0" cy="356.0" r="10.92" fill="#565b60" filter="url(#sh)"/><circle cx="240.0" cy="351.0" r="3.36" fill="url(#hi)"/><circle cx="244.0" cy="356.0" r="2.8000000000000003" fill="#3d3b37" opacity=".24"/><circle cx="272.0" cy="356.0" r="10.92" fill="#565b60" filter="url(#sh)"/><circle cx="268.0" cy="351.0" r="3.36" fill="url(#hi)"/><circle cx="272.0" cy="356.0" r="2.8000000000000003" fill="#3d3b37" opacity=".24"/><circle cx="384.0" cy="356.0" r="10.92" fill="#d7b968" filter="url(#sh)"/><circle cx="380.0" cy="351.0" r="3.36" fill="url(#hi)"/><circle cx="384.0" cy="356.0" r="2.8000000000000003" fill="#3d3b37" opacity=".24"/><circle cx="132.0" cy="384.0" r="10.92" fill="#d7b968" filter="url(#sh)"/><circle cx="128.0" cy="379.0" r="3.36" fill="url(#hi)"/><circle cx="132.0" cy="384.0" r="2.8000000000000003" fill="#3d3b37" opacity=".24"/><circle cx="244.0" cy="384.0" r="10.92" fill="#565b60" filter="url(#sh)"/><circle cx="240.0" cy="379.0" r="3.36" fill="url(#hi)"/><circle cx="244.0" cy="384.0" r="2.8000000000000003" fill="#3d3b37" opacity=".24"/><circle cx="272.0" cy="384.0" r="10.92" fill="#565b60" filter="url(#sh)"/><circle cx="268.0" cy="379.0" r="3.36" fill="url(#hi)"/><circle cx="272.0" cy="384.0" r="2.8000000000000003" fill="#3d3b37" opacity=".24"/><circle cx="384.0" cy="384.0" r="10.92" fill="#d7b968" filter="url(#sh)"/><circle cx="380.0" cy="379.0" r="3.36" fill="url(#hi)"/><circle cx="384.0" cy="384.0" r="2.8000000000000003" fill="#3d3b37" opacity=".24"/><circle cx="132.0" cy="412.0" r="10.92" fill="#d7b968" filter="url(#sh)"/><circle cx="128.0" cy="407.0" r="3.36" fill="url(#hi)"/><circle cx="132.0" cy="412.0" r="2.8000000000000003" fill="#3d3b37" opacity=".24"/><circle cx="160.0" cy="412.0" r="10.92" fill="#d7b968" filter="url(#sh)"/><circle cx="156.0" cy="407.0" r="3.36" fill="url(#hi)"/><circle cx="160.0" cy="412.0" r="2.8000000000000003" fill="#3d3b37" opacity=".24"/><circle cx="188.0" cy="412.0" r="10.92" fill="#d7b968" filter="url(#sh)"/><circle cx="184.0" cy="407.0" r="3.36" fill="url(#hi)"/><circle cx="188.0" cy="412.0" r="2.8000000000000003" fill="#3d3b37" opacity=".24"/><circle cx="216.0" cy="412.0" r="10.92" fill="#d7b968" filter="url(#sh)"/><circle cx="212.0" cy="407.0" r="3.36" fill="url(#hi)"/><circle cx="216.0" cy="412.0" r="2.8000000000000003" fill="#3d3b37" opacity=".24"/><circle cx="244.0" cy="412.0" r="10.92" fill="#d7b968" filter="url(#sh)"/><circle cx="240.0" cy="407.0" r="3.36" fill="url(#hi)"/><circle cx="244.0" cy="412.0" r="2.8000000000000003" fill="#3d3b37" opacity=".24"/><circle cx="272.0" cy="412.0" r="10.92" fill="#d7b968" filter="url(#sh)"/><circle cx="268.0" cy="407.0" r="3.36" fill="url(#hi)"/><circle cx="272.0" cy="412.0" r="2.8000000000000003" fill="#3d3b37" opacity=".24"/><circle cx="300.0" cy="412.0" r="10.92" fill="#d7b968" filter="url(#sh)"/><circle cx="296.0" cy="407.0" r="3.36" fill="url(#hi)"/><circle cx="300.0" cy="412.0" r="2.8000000000000003" fill="#3d3b37" opacity=".24"/><circle cx="328.0" cy="412.0" r="10.92" fill="#d7b968" filter="url(#sh)"/><circle cx="324.0" cy="407.0" r="3.36" fill="url(#hi)"/><circle cx="328.0" cy="412.0" r="2.8000000000000003" fill="#3d3b37" opacity=".24"/><circle cx="356.0" cy="412.0" r="10.92" fill="#d7b968" filter="url(#sh)"/><circle cx="352.0" cy="407.0" r="3.36" fill="url(#hi)"/><circle cx="356.0" cy="412.0" r="2.8000000000000003" fill="#3d3b37" opacity=".24"/><circle cx="384.0" cy="412.0" r="10.92" fill="#d7b968" filter="url(#sh)"/><circle cx="380.0" cy="407.0" r="3.36" fill="url(#hi)"/><circle cx="384.0" cy="412.0" r="2.8000000000000003" fill="#3d3b37" opacity=".24"/><circle cx="160.0" cy="440.0" r="10.92" fill="#e8e4d8" filter="url(#sh)"/><circle cx="156.0" cy="435.0" r="3.36" fill="url(#hi)"/><circle cx="160.0" cy="440.0" r="2.8000000000000003" fill="#3d3b37" opacity=".24"/><circle cx="356.0" cy="440.0" r="10.92" fill="#e8e4d8" filter="url(#sh)"/><circle cx="352.0" cy="435.0" r="3.36" fill="url(#hi)"/><circle cx="356.0" cy="440.0" r="2.8000000000000003" fill="#3d3b37" opacity=".24"/><circle cx="132.0" cy="468.0" r="10.92" fill="#6d8396" filter="url(#sh)"/><circle cx="128.0" cy="463.0" r="3.36" fill="url(#hi)"/><circle cx="132.0" cy="468.0" r="2.8000000000000003" fill="#3d3b37" opacity=".24"/><circle cx="160.0" cy="468.0" r="10.92" fill="#6d8396" filter="url(#sh)"/><circle cx="156.0" cy="463.0" r="3.36" fill="url(#hi)"/><circle cx="160.0" cy="468.0" r="2.8000000000000003" fill="#3d3b37" opacity=".24"/><circle cx="188.0" cy="468.0" r="10.92" fill="#6d8396" filter="url(#sh)"/><circle cx="184.0" cy="463.0" r="3.36" fill="url(#hi)"/><circle cx="188.0" cy="468.0" r="2.8000000000000003" fill="#3d3b37" opacity=".24"/><circle cx="328.0" cy="468.0" r="10.92" fill="#6d8396" filter="url(#sh)"/><circle cx="324.0" cy="463.0" r="3.36" fill="url(#hi)"/><circle cx="328.0" cy="468.0" r="2.8000000000000003" fill="#3d3b37" opacity=".24"/><circle cx="356.0" cy="468.0" r="10.92" fill="#6d8396" filter="url(#sh)"/><circle cx="352.0" cy="463.0" r="3.36" fill="url(#hi)"/><circle cx="356.0" cy="468.0" r="2.8000000000000003" fill="#3d3b37" opacity=".24"/><circle cx="384.0" cy="468.0" r="10.92" fill="#6d8396" filter="url(#sh)"/><circle cx="380.0" cy="463.0" r="3.36" fill="url(#hi)"/><circle cx="384.0" cy="468.0" r="2.8000000000000003" fill="#3d3b37" opacity=".24"/></svg>